# Blender v2.79 (sub 0) OBJ File: ''
# www.blender.org
mtllib cylinder.mtl
o Cylinder
v 0.000000 0.500000 -0.500000
v 0.097545 0.000000 -0.490393
v 0.000000 0.000000 -0.500000
v 0.097545 0.500000 -0.490393
v 0.191342 0.000000 -0.461940
v 0.191342 0.500000 -0.461940
v 0.277785 0.000000 -0.415735
v 0.277785 0.500000 -0.415735
v 0.353553 0.000000 -0.353553
v 0.353553 0.500000 -0.353553
v 0.415735 0.000000 -0.277785
v 0.415735 0.500000 -0.277785
v 0.461940 0.000000 -0.191342
v 0.461940 0.500000 -0.191342
v 0.490393 0.000000 -0.097545
v 0.490393 0.500000 -0.097545
v 0.500000 0.000000 0.000000
v 0.500000 0.500000 0.000000
v 0.490393 -0.000000 0.097545
v 0.490393 0.500000 0.097545
v 0.461940 -0.000000 0.191342
v 0.461940 0.500000 0.191342
v 0.415735 -0.000000 0.277785
v 0.415735 0.500000 0.277785
v 0.353553 -0.000000 0.353553
v 0.353553 0.500000 0.353553
v 0.277785 -0.000000 0.415735
v 0.277785 0.500000 0.415735
v 0.191342 -0.000000 0.461940
v 0.191342 0.500000 0.461940
v 0.097545 -0.000000 0.490393
v 0.097545 0.500000 0.490393
v 0.000000 -0.000000 0.500000
v 0.000000 0.500000 0.500000
v -0.097545 -0.000000 0.490393
v -0.097545 0.500000 0.490393
v -0.191342 -0.000000 0.461940
v -0.191342 0.500000 0.461940
v -0.277785 -0.000000 0.415735
v -0.277785 0.500000 0.415735
v -0.353554 -0.000000 0.353553
v -0.353554 0.500000 0.353553
v -0.415735 -0.000000 0.277785
v -0.415735 0.500000 0.277785
v -0.461940 -0.000000 0.191341
v -0.461940 0.500000 0.191341
v -0.490393 -0.000000 0.097545
v -0.490393 0.500000 0.097545
v -0.500000 0.000000 0.000000
v -0.500000 0.500000 0.000000
v -0.490393 0.000000 -0.097546
v -0.490393 0.500000 -0.097546
v -0.461940 0.000000 -0.191342
v -0.461940 0.500000 -0.191342
v -0.415734 0.000000 -0.277786
v -0.415734 0.500000 -0.277786
v -0.353553 0.000000 -0.353554
v -0.353553 0.500000 -0.353554
v -0.277785 0.000000 -0.415735
v -0.277785 0.500000 -0.415735
v -0.191341 0.000000 -0.461940
v -0.191341 0.500000 -0.461940
v -0.097544 0.000000 -0.490393
v -0.097544 0.500000 -0.490393
vt 0.749507 0.531568
vt 0.999781 0.580395
vt 0.999781 0.531568
vt 0.749507 0.580394
vt 0.999781 0.627344
vt 0.749507 0.627344
vt 0.999781 0.670613
vt 0.749507 0.670613
vt 0.999781 0.708539
vt 0.749507 0.354160
vt 0.999781 0.316234
vt 0.999781 0.354160
vt 0.749507 0.316234
vt 0.999781 0.272965
vt 0.749507 0.272965
vt 0.999781 0.226015
vt 0.749507 0.226015
vt 0.999781 0.177189
vt 0.749507 0.177189
vt 0.999781 0.128363
vt 0.749507 0.128363
vt 0.999781 0.081413
vt 0.749507 0.081413
vt 0.999781 0.038144
vt 0.749507 0.038144
vt 0.999781 0.000219
vt 0.498795 0.708539
vt 0.749069 0.670614
vt 0.749069 0.708540
vt 0.498795 0.670614
vt 0.749069 0.627345
vt 0.498795 0.627345
vt 0.749069 0.580395
vt 0.498795 0.580395
vt 0.749069 0.531569
vt 0.498795 0.531569
vt 0.749069 0.482743
vt 0.498795 0.482743
vt 0.749069 0.435793
vt 0.498795 0.435793
vt 0.749069 0.392524
vt 0.498795 0.392524
vt 0.749069 0.354598
vt 0.498795 0.000219
vt 0.749069 0.038144
vt 0.749069 0.000219
vt 0.498795 0.038144
vt 0.749069 0.081414
vt 0.498795 0.081414
vt 0.749069 0.128363
vt 0.498795 0.128363
vt 0.749069 0.177189
vt 0.498795 0.177189
vt 0.749069 0.226016
vt 0.498795 0.226016
vt 0.749069 0.272965
vt 0.498795 0.272965
vt 0.749069 0.316235
vt 0.498795 0.316235
vt 0.749069 0.354160
vt 0.749507 0.354598
vt 0.999781 0.392523
vt 0.999781 0.354598
vt 0.749507 0.392523
vt 0.999781 0.435793
vt 0.470011 0.865842
vt 0.488786 0.675212
vt 0.176636 0.508367
vt 0.749507 0.435793
vt 0.999781 0.482743
vt 0.749507 0.482743
vt 0.442754 0.408060
vt 0.090517 0.442754
vt 0.408060 0.055822
vt 0.749507 0.708539
vt 0.749507 0.000219
vt 0.498795 0.354598
vt 0.498795 0.354160
vt 0.131308 0.527142
vt 0.090515 0.554400
vt 0.055823 0.589092
vt 0.028565 0.629886
vt 0.009790 0.675214
vt 0.000219 0.723334
vt 0.000219 0.772396
vt 0.009791 0.820516
vt 0.028566 0.865844
vt 0.055824 0.906638
vt 0.090516 0.941330
vt 0.131310 0.968587
vt 0.176638 0.987362
vt 0.321940 0.987362
vt 0.224758 0.996934
vt 0.273821 0.996934
vt 0.367268 0.968586
vt 0.408062 0.941328
vt 0.442754 0.906636
vt 0.488786 0.820514
vt 0.498358 0.772394
vt 0.498358 0.723332
vt 0.470010 0.629884
vt 0.442752 0.589091
vt 0.408060 0.554399
vt 0.367266 0.527141
vt 0.321938 0.508366
vt 0.273818 0.498795
vt 0.224756 0.498795
vt 0.055823 0.090516
vt 0.090515 0.055824
vt 0.131308 0.028566
vt 0.176636 0.009790
vt 0.224756 0.000219
vt 0.273818 0.000219
vt 0.321938 0.009790
vt 0.367266 0.028565
vt 0.442752 0.090515
vt 0.470010 0.131308
vt 0.488786 0.176636
vt 0.498358 0.224755
vt 0.498358 0.273818
vt 0.488786 0.321938
vt 0.470011 0.367265
vt 0.408062 0.442752
vt 0.367268 0.470010
vt 0.321940 0.488786
vt 0.273821 0.498357
vt 0.224758 0.498358
vt 0.176638 0.488786
vt 0.131310 0.470011
vt 0.055824 0.408061
vt 0.028566 0.367268
vt 0.009791 0.321940
vt 0.000219 0.273820
vt 0.000219 0.224758
vt 0.009790 0.176638
vt 0.028565 0.131310
vn -0.0000 0.0000 -1.0000
vn 0.1420 -0.6857 -0.7139
vn -0.0000 -0.6857 -0.7279
vn 0.1951 0.0000 -0.9808
vn 0.2786 -0.6857 -0.6725
vn 0.3827 0.0000 -0.9239
vn 0.4044 -0.6857 -0.6052
vn 0.5556 0.0000 -0.8315
vn 0.5147 -0.6857 -0.5147
vn 0.7071 0.0000 -0.7071
vn 0.6052 -0.6857 -0.4044
vn 0.8315 0.0000 -0.5556
vn 0.6725 -0.6857 -0.2786
vn 0.9239 -0.0000 -0.3827
vn 0.7139 -0.6857 -0.1420
vn 0.9808 -0.0000 -0.1951
vn 0.7279 -0.6857 -0.0000
vn 1.0000 -0.0000 0.0000
vn 0.7139 -0.6857 0.1420
vn 0.9808 -0.0000 0.1951
vn 0.6725 -0.6857 0.2786
vn 0.9239 -0.0000 0.3827
vn 0.6052 -0.6857 0.4044
vn 0.8315 -0.0000 0.5556
vn 0.5147 -0.6857 0.5147
vn 0.7071 -0.0000 0.7071
vn 0.4044 -0.6857 0.6052
vn 0.5556 -0.0000 0.8315
vn 0.2786 -0.6857 0.6725
vn 0.3827 -0.0000 0.9239
vn 0.1420 -0.6857 0.7139
vn 0.1951 -0.0000 0.9808
vn 0.0000 -0.6857 0.7279
vn -0.0000 -0.0000 1.0000
vn -0.1420 -0.6857 0.7139
vn -0.1951 -0.0000 0.9808
vn -0.2786 -0.6857 0.6725
vn -0.3827 -0.0000 0.9239
vn -0.4044 -0.6857 0.6052
vn -0.5556 -0.0000 0.8315
vn -0.5147 -0.6857 0.5147
vn -0.7071 -0.0000 0.7071
vn -0.6052 -0.6857 0.4044
vn -0.8315 -0.0000 0.5556
vn -0.6725 -0.6857 0.2786
vn -0.9239 0.0000 0.3827
vn -0.7139 -0.6857 0.1420
vn -0.9808 0.0000 0.1951
vn -0.7279 -0.6857 0.0000
vn -1.0000 0.0000 0.0000
vn -0.7139 -0.6857 -0.1420
vn -0.9808 0.0000 -0.1951
vn -0.6725 -0.6857 -0.2786
vn -0.9239 0.0000 -0.3827
vn -0.6052 -0.6857 -0.4044
vn -0.8315 0.0000 -0.5556
vn -0.5147 -0.6857 -0.5147
vn -0.7071 0.0000 -0.7071
vn -0.4044 -0.6857 -0.6052
vn -0.5556 0.0000 -0.8315
vn -0.2785 -0.6857 -0.6725
vn 0.2785 0.6857 0.6725
vn 0.6725 0.6857 0.2785
vn 0.2785 0.6857 -0.6725
vn -0.3827 0.0000 -0.9239
vn -0.1420 -0.6857 -0.7139
vn -0.1951 0.0000 -0.9808
vn 0.1420 0.6857 -0.7139
vn 0.0000 0.6857 -0.7279
vn -0.1420 0.6857 -0.7139
vn -0.2785 0.6857 -0.6725
vn -0.4044 0.6857 -0.6052
vn -0.5147 0.6857 -0.5147
vn -0.6052 0.6857 -0.4044
vn -0.6725 0.6857 -0.2785
vn -0.7139 0.6857 -0.1420
vn -0.7279 0.6857 -0.0000
vn -0.7139 0.6857 0.1420
vn -0.6725 0.6857 0.2785
vn -0.6052 0.6857 0.4044
vn -0.2785 0.6857 0.6725
vn -0.5147 0.6857 0.5147
vn -0.4044 0.6857 0.6052
vn -0.1420 0.6857 0.7139
vn -0.0000 0.6857 0.7279
vn 0.1420 0.6857 0.7139
vn 0.4044 0.6857 0.6052
vn 0.5147 0.6857 0.5147
vn 0.6052 0.6857 0.4044
vn 0.7139 0.6857 0.1420
vn 0.7279 0.6857 0.0000
vn 0.7139 0.6857 -0.1420
vn 0.6725 0.6857 -0.2785
vn 0.6052 0.6857 -0.4044
vn 0.5147 0.6857 -0.5147
vn 0.4044 0.6857 -0.6052
usemtl Material.001
s 1
f 1/1/1 2/2/2 3/3/3
f 4/4/4 5/5/5 2/2/2
f 6/6/6 7/7/7 5/5/5
f 8/8/8 9/9/9 7/7/7
f 10/10/10 11/11/11 9/12/9
f 12/13/12 13/14/13 11/11/11
f 14/15/14 15/16/15 13/14/13
f 16/17/16 17/18/17 15/16/15
f 18/19/18 19/20/19 17/18/17
f 20/21/20 21/22/21 19/20/19
f 22/23/22 23/24/23 21/22/21
f 24/25/24 25/26/25 23/24/23
f 26/27/26 27/28/27 25/29/25
f 28/30/28 29/31/29 27/28/27
f 30/32/30 31/33/31 29/31/29
f 32/34/32 33/35/33 31/33/31
f 34/36/34 35/37/35 33/35/33
f 36/38/36 37/39/37 35/37/35
f 38/40/38 39/41/39 37/39/37
f 40/42/40 41/43/41 39/41/39
f 42/44/42 43/45/43 41/46/41
f 44/47/44 45/48/45 43/45/43
f 46/49/46 47/50/47 45/48/45
f 48/51/48 49/52/49 47/50/47
f 50/53/50 51/54/51 49/52/49
f 52/55/52 53/56/53 51/54/51
f 54/57/54 55/58/55 53/56/53
f 56/59/56 57/60/57 55/58/55
f 58/61/58 59/62/59 57/63/57
f 60/64/60 61/65/61 59/62/59
f 30/66/62 22/67/63 6/68/64
f 62/69/65 63/70/66 61/65/61
f 64/71/67 3/3/3 63/70/66
f 31/72/31 47/73/47 15/74/15
f 1/1/1 4/4/4 2/2/2
f 4/4/4 6/6/6 5/5/5
f 6/6/6 8/8/8 7/7/7
f 8/8/8 10/75/10 9/9/9
f 10/10/10 12/13/12 11/11/11
f 12/13/12 14/15/14 13/14/13
f 14/15/14 16/17/16 15/16/15
f 16/17/16 18/19/18 17/18/17
f 18/19/18 20/21/20 19/20/19
f 20/21/20 22/23/22 21/22/21
f 22/23/22 24/25/24 23/24/23
f 24/25/24 26/76/26 25/26/25
f 26/27/26 28/30/28 27/28/27
f 28/30/28 30/32/30 29/31/29
f 30/32/30 32/34/32 31/33/31
f 32/34/32 34/36/34 33/35/33
f 34/36/34 36/38/36 35/37/35
f 36/38/36 38/40/38 37/39/37
f 38/40/38 40/42/40 39/41/39
f 40/42/40 42/77/42 41/43/41
f 42/44/42 44/47/44 43/45/43
f 44/47/44 46/49/46 45/48/45
f 46/49/46 48/51/48 47/50/47
f 48/51/48 50/53/50 49/52/49
f 50/53/50 52/55/52 51/54/51
f 52/55/52 54/57/54 53/56/53
f 54/57/54 56/59/56 55/58/55
f 56/59/56 58/78/58 57/60/57
f 58/61/58 60/64/60 59/62/59
f 60/64/60 62/69/65 61/65/61
f 6/68/64 4/79/68 1/80/69
f 1/80/69 64/81/70 6/68/64
f 62/82/71 60/83/72 58/84/73
f 58/84/73 56/85/74 54/86/75
f 54/86/75 52/87/76 50/88/77
f 50/88/77 48/89/78 54/86/75
f 46/90/79 44/91/80 38/92/81
f 42/93/82 40/94/83 38/92/81
f 38/92/81 36/95/84 34/96/85
f 34/96/85 32/97/86 38/92/81
f 30/66/62 28/98/87 26/99/88
f 26/99/88 24/100/89 22/67/63
f 22/67/63 20/101/90 18/102/91
f 18/102/91 16/103/92 14/104/93
f 14/104/93 12/105/94 10/106/95
f 10/106/95 8/107/96 6/68/64
f 6/68/64 64/81/70 62/82/71
f 62/82/71 58/84/73 6/68/64
f 54/86/75 48/89/78 46/90/79
f 44/91/80 42/93/82 38/92/81
f 38/92/81 32/97/86 30/66/62
f 30/66/62 26/99/88 22/67/63
f 22/67/63 18/102/91 14/104/93
f 14/104/93 10/106/95 22/67/63
f 6/68/64 58/84/73 54/86/75
f 54/86/75 46/90/79 38/92/81
f 38/92/81 30/66/62 6/68/64
f 22/67/63 10/106/95 6/68/64
f 6/68/64 54/86/75 38/92/81
f 62/69/65 64/71/67 63/70/66
f 64/71/67 1/1/1 3/3/3
f 63/108/66 3/109/3 2/110/2
f 2/110/2 5/111/5 7/112/7
f 7/112/7 9/113/9 11/114/11
f 11/114/11 13/115/13 7/112/7
f 15/74/15 17/116/17 19/117/19
f 19/117/19 21/118/21 15/74/15
f 23/119/23 25/120/25 31/72/31
f 27/121/27 29/122/29 31/72/31
f 31/72/31 33/123/33 35/124/35
f 35/124/35 37/125/37 39/126/39
f 39/126/39 41/127/41 43/128/43
f 43/128/43 45/129/45 47/73/47
f 47/73/47 49/130/49 51/131/51
f 51/131/51 53/132/53 55/133/55
f 55/133/55 57/134/57 63/108/66
f 59/135/59 61/136/61 63/108/66
f 63/108/66 2/110/2 15/74/15
f 7/112/7 13/115/13 15/74/15
f 15/74/15 21/118/21 23/119/23
f 25/120/25 27/121/27 31/72/31
f 31/72/31 35/124/35 47/73/47
f 39/126/39 43/128/43 47/73/47
f 47/73/47 51/131/51 63/108/66
f 57/134/57 59/135/59 63/108/66
f 2/110/2 7/112/7 15/74/15
f 15/74/15 23/119/23 31/72/31
f 35/124/35 39/126/39 47/73/47
f 51/131/51 55/133/55 63/108/66
f 63/108/66 15/74/15 47/73/47
